<?xml version="1.0" encoding="UTF-8" standalone="no"?>
<svg
   xmlns:dc="http://purl.org/dc/elements/1.1/"
   xmlns:cc="http://creativecommons.org/ns#"
   xmlns:rdf="http://www.w3.org/1999/02/22-rdf-syntax-ns#"
   xmlns:svg="http://www.w3.org/2000/svg"
   xmlns="http://www.w3.org/2000/svg"
   xmlns:sodipodi="http://sodipodi.sourceforge.net/DTD/sodipodi-0.dtd"
   xmlns:inkscape="http://www.inkscape.org/namespaces/inkscape"
   xml:space="preserve"
   width="1024px"
   height="1024px"
   shape-rendering="geometricPrecision"
   text-rendering="geometricPrecision"
   image-rendering="optimizeQuality"
   fill-rule="evenodd"
   clip-rule="evenodd"
   viewBox="0 0 10240 10240"
   id="svg4974"
   version="1.1"
   inkscape:version="0.48.4 r9939"
   sodipodi:docname="earth.svg"><metadata
   id="metadata4986"><rdf:RDF><cc:Work
       rdf:about=""><dc:format>image/svg+xml</dc:format><dc:type
         rdf:resource="http://purl.org/dc/dcmitype/StillImage" /><dc:title>earth icon</dc:title></cc:Work></rdf:RDF></metadata><defs
   id="defs4984" /><sodipodi:namedview
   pagecolor="#ffffff"
   bordercolor="#666666"
   borderopacity="1"
   objecttolerance="10"
   gridtolerance="10"
   guidetolerance="10"
   inkscape:pageopacity="0"
   inkscape:pageshadow="2"
   inkscape:window-width="997"
   inkscape:window-height="957"
   id="namedview4982"
   showgrid="false"
   inkscape:zoom="0.23046875"
   inkscape:cx="-164.88136"
   inkscape:cy="512"
   inkscape:window-x="17"
   inkscape:window-y="54"
   inkscape:window-maximized="0"
   inkscape:current-layer="svg4974" />
	<title
   id="title4976">earth icon</title>
	<desc
   id="desc4978">earth icon from the IconExperience.com O-Collection. Copyright by INCORS GmbH (www.incors.com).</desc>
	<path
   id="curve1"
   fill="#252525"
   d="M5834 697c504,81 980,245 1413,479 -34,-15 -67,-31 -97,-48 -101,-59 -218,-79 -332,-45 -79,23 -142,67 -200,125 -13,13 -27,29 -41,42 -42,18 -101,33 -142,48 -136,49 -259,116 -343,238 -13,19 -25,39 -36,60 -64,129 -62,261 -18,392 -3,3 -6,5 -9,8 -11,11 -23,24 -36,35 -46,5 -106,1 -146,2 -197,1 -356,46 -512,171 -91,73 -162,168 -210,275 -111,246 -109,597 79,801 -22,33 -42,67 -61,100 -59,60 -144,122 -207,182 -54,52 -106,108 -150,170 -114,161 -197,346 -211,545 -7,101 17,152 28,235 -8,28 -21,58 -31,84 -34,89 -57,173 -51,270 1,20 4,41 8,61 90,451 477,862 898,1030 276,110 573,-35 836,-131 3,5 6,11 9,16 38,67 86,118 140,171 4,4 10,9 15,15 1,49 -3,95 8,152 23,126 91,249 146,364 17,35 55,112 62,152 -2,65 -13,101 -39,162 -45,107 -76,196 -91,312 -3,25 -5,51 -4,76 2,126 46,229 102,338 19,37 51,95 58,136 40,228 69,465 219,653 48,60 109,107 179,136 371,154 763,-241 982,-494 91,-105 177,-217 254,-333 71,-107 83,-214 89,-337 1,-12 1,-28 2,-41 4,-10 9,-23 15,-34 202,-66 287,-202 358,-413 74,-222 -50,-324 -11,-505 59,-272 259,-450 421,-657 130,-166 176,-359 117,-564 -12,-42 -28,-82 -45,-121 63,-37 118,-83 167,-156l183 274c-5,2470 -2008,4472 -4480,4472 -568,0 -1111,-106 -1611,-299l-243 -403c-74,-122 -213,-306 -298,-465 75,-25 141,-65 199,-140 61,-79 87,-177 78,-276 -11,-125 81,-161 187,-206 69,-29 130,-74 176,-133 123,-156 109,-333 92,-517 -3,-27 -9,-78 -5,-105 12,-44 39,-91 61,-130 51,-91 94,-176 114,-280 26,-135 2,-266 -61,-387 -135,-258 -694,-372 -952,-521 -9,-19 -17,-54 -22,-71 -24,-84 -49,-160 -97,-234 -15,-23 -32,-46 -51,-67 -59,-66 -130,-114 -214,-143 -56,-19 -106,-26 -163,-36 -13,-2 -27,-5 -39,-11 -36,-19 -123,-113 -155,-144 -129,-123 -262,-216 -434,-269 -106,-33 -211,-30 -317,-1 -12,3 -25,7 -37,12 -87,-131 -172,-359 -131,-500 29,-23 66,-48 92,-66 74,-51 149,-101 223,-152 20,-14 41,-28 61,-42 121,-85 200,-214 263,-345 29,-61 62,-152 95,-213 132,-110 317,-297 476,-319 36,-5 70,-15 103,-31 113,-54 162,-132 192,-223 193,59 366,-29 498,-169 173,-184 121,-425 44,-636 -12,-32 -31,-76 -45,-117 12,-7 25,-13 32,-17 52,-27 99,-55 138,-90 17,63 50,122 108,175 96,87 223,111 346,83 234,-54 416,-267 636,-362 78,-33 166,-40 249,-47 143,-12 272,-27 409,-77 149,-55 281,-132 397,-241 51,-48 91,-104 137,-150 118,-75 202,-189 215,-333 7,-75 -7,-144 -34,-207zm-4154 7292c-628,-753 -1014,-1715 -1038,-2767 79,111 154,229 188,307 -15,230 14,466 50,691 57,355 345,740 583,1010 32,64 63,238 77,306 27,125 55,257 104,375 10,25 22,50 36,77z"
   style="fill:#808080;fill-opacity:1" />
	<path
   id="curve0"
   fill="#A1C057"
   d="M5408 3561c136,-240 278,-405 455,-300 117,69 221,-23 378,-79 124,-44 307,-52 374,-29 333,115 317,454 661,511 39,7 218,-101 258,-94 210,37 411,233 595,140 110,-55 168,-261 69,-334 -95,-71 -241,-19 -345,-92 -154,-108 -281,43 -408,-102 -58,-65 -160,-270 -235,-377 -81,-115 -325,-68 -285,-16 125,166 309,193 333,285 26,100 -237,233 -166,51 37,-96 -151,-156 -369,-268 -114,-59 -225,-211 -398,-129 -85,40 -246,240 -310,334 -110,162 -359,118 -526,37 -165,-79 -168,-474 46,-646 206,-165 374,-64 574,-120 82,-23 123,-110 245,-191 145,-96 -89,-248 -12,-404 63,-127 276,-152 388,-207 105,-51 143,-195 258,-128 159,93 412,160 568,256 228,140 397,219 620,185 729,681 1230,1602 1378,2638 -76,-114 -169,-233 -233,-213 -75,23 -80,257 -161,392 -66,110 -214,122 -238,154 -160,214 234,386 3,683 -99,127 -401,414 -481,786 -57,261 56,364 20,471 -129,388 -209,44 -370,439 -38,94 -3,230 -57,311 -246,369 -731,880 -899,669 -98,-123 -123,-332 -154,-509 -31,-177 -172,-312 -154,-452 29,-219 128,-266 133,-517 3,-165 -187,-428 -213,-574 -13,-70 9,-159 -22,-223 -39,-82 -133,-138 -178,-216 -96,-169 -110,-256 -338,-178 -204,70 -503,220 -666,155 -323,-129 -635,-455 -703,-796 -18,-91 56,-185 79,-311 14,-79 -33,-170 -27,-253 10,-141 77,-274 153,-383 107,-152 324,-292 360,-356zm-3819 1508c266,82 375,307 534,391 136,72 241,24 326,119 104,116 62,324 236,428 210,126 791,303 842,400 114,218 -82,344 -141,572 -45,174 85,470 -77,538 -260,109 -404,262 -382,528 16,184 -416,14 -329,329 61,222 321,569 394,691 -34,-18 -68,-37 -101,-56 -248,-248 -824,-908 -952,-1217 -93,-225 -118,-636 -228,-761 -229,-259 -473,-595 -515,-860 -39,-242 -63,-468 -43,-669 9,-86 -294,-564 -496,-769 197,-2292 2120,-4091 4463,-4091 83,0 166,2 249,7 151,106 260,232 105,323 -95,56 -153,242 -465,357 -231,85 -442,31 -674,130 -240,103 -444,312 -582,344 -217,50 103,-497 39,-582 -93,-125 -786,46 -882,145 -93,96 257,212 258,222 7,82 -250,75 -301,325 -23,115 211,467 101,584 -234,250 -247,-133 -449,-25 -122,66 -74,338 -154,349 -276,38 -455,248 -661,410 -80,63 -157,411 -313,521 -203,143 -434,282 -466,348 -190,383 146,890 232,967 148,132 267,-49 433,2z"
   style="fill:#f6911f;fill-opacity:1" />
</svg>