<?xml version="1.0" encoding="UTF-8" standalone="no"?>
<svg
   xmlns:dc="http://purl.org/dc/elements/1.1/"
   xmlns:cc="http://creativecommons.org/ns#"
   xmlns:rdf="http://www.w3.org/1999/02/22-rdf-syntax-ns#"
   xmlns:svg="http://www.w3.org/2000/svg"
   xmlns="http://www.w3.org/2000/svg"
   xmlns:sodipodi="http://sodipodi.sourceforge.net/DTD/sodipodi-0.dtd"
   xmlns:inkscape="http://www.inkscape.org/namespaces/inkscape"
   xml:space="preserve"
   width="1024px"
   height="1024px"
   shape-rendering="geometricPrecision"
   text-rendering="geometricPrecision"
   image-rendering="optimizeQuality"
   fill-rule="evenodd"
   clip-rule="evenodd"
   viewBox="0 0 10240 10240"
   id="svg2999"
   version="1.1"
   inkscape:version="0.48.4 r9939"
   sodipodi:docname="mouse_left_button-2.svg"><metadata
   id="metadata3011"><rdf:RDF><cc:Work
       rdf:about=""><dc:format>image/svg+xml</dc:format><dc:type
         rdf:resource="http://purl.org/dc/dcmitype/StillImage" /><dc:title>mouse_left_button icon</dc:title></cc:Work></rdf:RDF></metadata><defs
   id="defs3009" /><sodipodi:namedview
   pagecolor="#ffffff"
   bordercolor="#666666"
   borderopacity="1"
   objecttolerance="10"
   gridtolerance="10"
   guidetolerance="10"
   inkscape:pageopacity="0"
   inkscape:pageshadow="2"
   inkscape:window-width="842"
   inkscape:window-height="875"
   id="namedview3007"
   showgrid="false"
   inkscape:zoom="0.23046875"
   inkscape:cx="-10.566436"
   inkscape:cy="705.08475"
   inkscape:window-x="0"
   inkscape:window-y="0"
   inkscape:window-maximized="0"
   inkscape:current-layer="svg2999" />
	<title
   id="title3001">mouse_left_button icon</title>
	<desc
   id="desc3003">mouse_left_button icon from the IconExperience.com O-Collection. Copyright by INCORS GmbH (www.incors.com).</desc>
	<path
   id="curve1"
   fill="#A1C057"
   d="M4480 4160l-1600 0 0 -960c0,-530 430,-960 960,-960l640 0c0,640 0,1280 0,1920z"
   style="fill:#f6911f;fill-opacity:1" />
	<path
   id="curve0"
   fill="#252525"
   d="M3840 1280l2560 0c1058,0 1920,862 1920,1920l0 3200c0,1767 -1433,3200 -3200,3200 -1767,0 -3200,-1433 -3200,-3200l0 -3200c0,-1058 862,-1920 1920,-1920zm1600 640l0 2560 2240 0 0 -1280c0,-705 -575,-1280 -1280,-1280l-960 0zm-640 2560l0 -2560 -960 0c-705,0 -1280,575 -1280,1280l0 1280 2240 0zm2880 640l-5120 0 0 1280c0,1414 1146,2560 2560,2560 1414,0 2560,-1146 2560,-2560l0 -1280z"
   style="fill:#808080;fill-opacity:1" />
</svg>