<?xml version="1.0" encoding="UTF-8" standalone="no"?>
<svg
   xmlns:dc="http://purl.org/dc/elements/1.1/"
   xmlns:cc="http://creativecommons.org/ns#"
   xmlns:rdf="http://www.w3.org/1999/02/22-rdf-syntax-ns#"
   xmlns:svg="http://www.w3.org/2000/svg"
   xmlns="http://www.w3.org/2000/svg"
   xmlns:sodipodi="http://sodipodi.sourceforge.net/DTD/sodipodi-0.dtd"
   xmlns:inkscape="http://www.inkscape.org/namespaces/inkscape"
   xml:space="preserve"
   width="1024px"
   height="1024px"
   shape-rendering="geometricPrecision"
   text-rendering="geometricPrecision"
   image-rendering="optimizeQuality"
   fill-rule="evenodd"
   clip-rule="evenodd"
   viewBox="0 0 10240 10240"
   id="svg5851"
   version="1.1"
   inkscape:version="0.48.4 r9939"
   sodipodi:docname="users_meeting.svg"><metadata
   id="metadata5870"><rdf:RDF><cc:Work
       rdf:about=""><dc:format>image/svg+xml</dc:format><dc:type
         rdf:resource="http://purl.org/dc/dcmitype/StillImage" /><dc:title>users_meeting icon</dc:title></cc:Work></rdf:RDF></metadata><defs
   id="defs5868" /><sodipodi:namedview
   pagecolor="#ffffff"
   bordercolor="#666666"
   borderopacity="1"
   objecttolerance="10"
   gridtolerance="10"
   guidetolerance="10"
   inkscape:pageopacity="0"
   inkscape:pageshadow="2"
   inkscape:window-width="792"
   inkscape:window-height="619"
   id="namedview5866"
   showgrid="false"
   inkscape:zoom="0.32593203"
   inkscape:cx="512"
   inkscape:cy="512"
   inkscape:window-x="17"
   inkscape:window-y="271"
   inkscape:window-maximized="0"
   inkscape:current-layer="svg5851" />
	<title
   id="title5853">users_meeting icon</title>
	<desc
   id="desc5855">users_meeting icon from the IconExperience.com O-Collection. Copyright by INCORS GmbH (www.incors.com).</desc>
	<path
   id="curve8"
   d="m 4037.2751,1486.1565 1920,0 c 176,0 320,144 320,320 l 0,2560 c -292,-389 -757,-640 -1280,-640 -523,0 -988,251 -1280,640 l 0,-2560 c 0,-176 144,-320 320,-320 z"
   style="fill:#f6911f;fill-opacity:1"
   inkscape:connector-curvature="0" />
	<path
   id="curve7"
   d="m 8000,236.83773 c 707,0 1280,573 1280,1279.99997 0,468 -251,876 -625,1100 -200,-90 -422,-140 -655,-140 -233,0 -455,50 -655,140 -374,-223 -625,-632 -625,-1100 0,-706.99997 573,-1279.99997 1280,-1279.99997 z"
   style="fill:#808080;fill-opacity:1"
   inkscape:connector-curvature="0" />
	<path
   id="curve6"
   d="m 9630.6812,6589.1127 c 0,405 -960,565 -1600,565 -345,0 -782,-46 -1113,-153 -40,-86 -90,-169 -151,-247 -96,-122 -211,-224 -333,-318 5,-108 15,-203 30,-288 108,-155 189,-330 237,-518 110,-126 251,-230 424,-357 258,177 569,281 906,281 336,0 648,-104 906,-281 453,332 694,513 694,1316 z"
   style="fill:#808080;fill-opacity:1"
   inkscape:connector-curvature="0" />
	<path
   id="curve5"
   d="m 8030.6812,2766.1565 c 707,0 1280,573 1280,1280 0,707 -573,1280 -1280,1280 -707,0 -1280,-573 -1280,-1280 0,-707 573,-1280 1280,-1280 z"
   style="fill:#808080;fill-opacity:1"
   inkscape:connector-curvature="0" />
	<path
   id="curve4"
   d="m 2144.9562,213.15648 c 707,0 1280,573 1280,1280.00002 0,464 -247,871 -617,1095 -201,-91 -425,-142 -660,-142 -237,0 -461,51 -663,144 -371,-224 -619.99993,-631 -619.99993,-1097 0,-707.00002 572.99993,-1280.00002 1279.99993,-1280.00002 z"
   style="fill:#808080;fill-opacity:1"
   inkscape:connector-curvature="0" />
	<path
   id="curve3"
   d="m 3230.2751,7062.4752 c -330,106 -768,153 -1113,153 -640,0 -1600.00007,-160 -1600.00007,-565 0,-802 242.00002,-985 694.00007,-1316 258,177 569,281 906,281 336,0 648,-104 906,-281 172,126 314,231 423,356 48,188 129,363 237,518 15,85 26,180 30,288 -121,95 -237,196 -332,318 -62,79 -112,162 -151,248 z"
   style="fill:#808080;fill-opacity:1"
   inkscape:connector-curvature="0" />
	<path
   id="curve2"
   d="m 2209.3187,2704.794 c 707,0 1280,573 1280,1280 0,707 -573,1280 -1280,1280 -707,0 -1279.99997,-573 -1279.99997,-1280 0,-707 572.99997,-1280 1279.99997,-1280 z"
   style="fill:#808080;fill-opacity:1"
   inkscape:connector-curvature="0" />
	<path
   id="curve1"
   d="m 6597.2751,7991.8378 c 0,405 -960,565 -1600,565 -640,0 -1600,-160 -1600,-565 0,-802 242,-985 694,-1316 258,177 569,281 906,281 336,0 648,-104 906,-281 453,332 694,513 694,1316 z"
   style="fill:#808080;fill-opacity:1"
   inkscape:connector-curvature="0" />
	<path
   id="curve0"
   d="m 4997.275,4046.1565 c 707,0 1280,573 1280,1280 0,707 -573,1280 -1280,1280 -707,0 -1280,-573 -1280,-1280 0,-707 573,-1280 1280,-1280 z"
   style="fill:#808080;fill-opacity:1"
   inkscape:connector-curvature="0" />
</svg>