<?xml version="1.0" encoding="UTF-8" standalone="no"?>
<svg
   xmlns:dc="http://purl.org/dc/elements/1.1/"
   xmlns:cc="http://creativecommons.org/ns#"
   xmlns:rdf="http://www.w3.org/1999/02/22-rdf-syntax-ns#"
   xmlns:svg="http://www.w3.org/2000/svg"
   xmlns="http://www.w3.org/2000/svg"
   xmlns:sodipodi="http://sodipodi.sourceforge.net/DTD/sodipodi-0.dtd"
   xmlns:inkscape="http://www.inkscape.org/namespaces/inkscape"
   xml:space="preserve"
   width="1024px"
   height="1024px"
   shape-rendering="geometricPrecision"
   text-rendering="geometricPrecision"
   image-rendering="optimizeQuality"
   fill-rule="evenodd"
   clip-rule="evenodd"
   viewBox="0 0 10240 10240"
   id="svg5851"
   version="1.1"
   inkscape:version="0.48.4 r9939"
   sodipodi:docname="users_meeting.svg"><metadata
   id="metadata5870"><rdf:RDF><cc:Work
       rdf:about=""><dc:format>image/svg+xml</dc:format><dc:type
         rdf:resource="http://purl.org/dc/dcmitype/StillImage" /><dc:title>users_meeting icon</dc:title></cc:Work></rdf:RDF></metadata><defs
   id="defs5868" /><sodipodi:namedview
   pagecolor="#ffffff"
   bordercolor="#666666"
   borderopacity="1"
   objecttolerance="10"
   gridtolerance="10"
   guidetolerance="10"
   inkscape:pageopacity="0"
   inkscape:pageshadow="2"
   inkscape:window-width="678"
   inkscape:window-height="480"
   id="namedview5866"
   showgrid="false"
   inkscape:zoom="0.23046875"
   inkscape:cx="512"
   inkscape:cy="512"
   inkscape:window-x="1021"
   inkscape:window-y="435"
   inkscape:window-maximized="0"
   inkscape:current-layer="svg5851" />
	<title
   id="title5853">users_meeting icon</title>
	<desc
   id="desc5855">users_meeting icon from the IconExperience.com O-Collection. Copyright by INCORS GmbH (www.incors.com).</desc>
	<path
   id="curve8"
   fill="#A1C057"
   d="M4160 2560l1920 0c176,0 320,144 320,320l0 2560c-292,-389 -757,-640 -1280,-640 -523,0 -988,251 -1280,640l0 -2560c0,-176 144,-320 320,-320z"
   style="fill:#f6911f;fill-opacity:1" />
	<path
   id="curve7"
   fill="#252525"
   d="M8000 1280c707,0 1280,573 1280,1280 0,468 -251,876 -625,1100 -200,-90 -422,-140 -655,-140 -233,0 -455,50 -655,140 -374,-223 -625,-632 -625,-1100 0,-707 573,-1280 1280,-1280z"
   style="fill:#808080;fill-opacity:1" />
	<path
   id="curve6"
   fill="#252525"
   d="M9600 7755c0,405 -960,565 -1600,565 -345,0 -782,-46 -1113,-153 -40,-86 -90,-169 -151,-247 -96,-122 -211,-224 -333,-318 5,-108 15,-203 30,-288 108,-155 189,-330 237,-518 110,-126 251,-230 424,-357 258,177 569,281 906,281 336,0 648,-104 906,-281 453,332 694,513 694,1316z"
   style="fill:#808080;fill-opacity:1" />
	<path
   id="curve5"
   fill="#252525"
   d="M8000 3840c707,0 1280,573 1280,1280 0,707 -573,1280 -1280,1280 -707,0 -1280,-573 -1280,-1280 0,-707 573,-1280 1280,-1280z"
   style="fill:#808080;fill-opacity:1" />
	<path
   id="curve4"
   fill="#252525"
   d="M2237 1287c707,0 1280,573 1280,1280 0,464 -247,871 -617,1095 -201,-91 -425,-142 -660,-142 -237,0 -461,51 -663,144 -371,-224 -620,-631 -620,-1097 0,-707 573,-1280 1280,-1280z"
   style="fill:#808080;fill-opacity:1" />
	<path
   id="curve3"
   fill="#252525"
   d="M3353 8167c-330,106 -768,153 -1113,153 -640,0 -1600,-160 -1600,-565 0,-802 242,-985 694,-1316 258,177 569,281 906,281 336,0 648,-104 906,-281 172,126 314,231 423,356 48,188 129,363 237,518 15,85 26,180 30,288 -121,95 -237,196 -332,318 -62,79 -112,162 -151,248z"
   style="fill:#808080;fill-opacity:1" />
	<path
   id="curve2"
   fill="#252525"
   d="M2240 3840c707,0 1280,573 1280,1280 0,707 -573,1280 -1280,1280 -707,0 -1280,-573 -1280,-1280 0,-707 573,-1280 1280,-1280z"
   style="fill:#808080;fill-opacity:1" />
	<path
   id="curve1"
   fill="#252525"
   d="M6720 9035c0,405 -960,565 -1600,565 -640,0 -1600,-160 -1600,-565 0,-802 242,-985 694,-1316 258,177 569,281 906,281 336,0 648,-104 906,-281 453,332 694,513 694,1316z"
   style="fill:#808080;fill-opacity:1" />
	<path
   id="curve0"
   fill="#252525"
   d="M5120 5120c707,0 1280,573 1280,1280 0,707 -573,1280 -1280,1280 -707,0 -1280,-573 -1280,-1280 0,-707 573,-1280 1280,-1280z"
   style="fill:#808080;fill-opacity:1" />
</svg>